<?xml version="1.0" encoding="UTF-8" standalone="no"?>
<svg
   xmlns:dc="http://purl.org/dc/elements/1.1/"
   xmlns:cc="http://creativecommons.org/ns#"
   xmlns:rdf="http://www.w3.org/1999/02/22-rdf-syntax-ns#"
   xmlns:svg="http://www.w3.org/2000/svg"
   xmlns="http://www.w3.org/2000/svg"
   xmlns:sodipodi="http://sodipodi.sourceforge.net/DTD/sodipodi-0.dtd"
   xmlns:inkscape="http://www.inkscape.org/namespaces/inkscape"
   version="1.1"
   id="Capa_1"
   x="0px"
   y="0px"
   viewBox="0 0 418.18 418.18"
   style="enable-background:new 0 0 418.18 418.18;"
   xml:space="preserve"
   sodipodi:docname="upload#00A896.svg"
   inkscape:version="1.0.2 (e86c870879, 2021-01-15)"><metadata
   id="metadata43"><rdf:RDF><cc:Work
       rdf:about=""><dc:format>image/svg+xml</dc:format><dc:type
         rdf:resource="http://purl.org/dc/dcmitype/StillImage" /><dc:title></dc:title></cc:Work></rdf:RDF></metadata><defs
   id="defs41" /><sodipodi:namedview
   pagecolor="#ffffff"
   bordercolor="#666666"
   borderopacity="1"
   objecttolerance="10"
   gridtolerance="10"
   guidetolerance="10"
   inkscape:pageopacity="0"
   inkscape:pageshadow="2"
   inkscape:window-width="1235"
   inkscape:window-height="664"
   id="namedview39"
   showgrid="false"
   inkscape:zoom="1.1884834"
   inkscape:cx="209.09"
   inkscape:cy="194.00244"
   inkscape:window-x="45"
   inkscape:window-y="28"
   inkscape:window-maximized="1"
   inkscape:current-layer="Capa_1" />
<g
   id="g6"
   style="fill:#00a896;fill-opacity:1">
	<path
   d="M350.369,140.199h-92.162c-8.271,0-15,6.729-15,15v29.712c0,2.757-2.243,5-5,5h-58.234c-2.757,0-5-2.243-5-5v-29.712   c0-8.271-6.729-15-15-15H67.811c-8.271,0-15,6.729-15,15v247.98c0,8.271,6.729,15,15,15h282.559c8.271,0,15-6.729,15-15v-247.98   C365.369,146.928,358.641,140.199,350.369,140.199z M232.066,301.954v67.529h-45.958v-67.525h-25.083l48.067-54.201l48.063,54.198   H232.066z"
   id="path2"
   style="fill:#00a896;fill-opacity:1" />
	<path
   d="M156.1,75.763h20.74v45.168c0,4.963,4.037,9,9,9h46.492c4.963,0,9-4.037,9-9V75.759h20.748c3.03,0,5.498-1.417,6.601-3.79   c1.104-2.374,0.596-5.174-1.357-7.491L215.492,3.036c-1.628-1.93-3.961-3.036-6.4-3.036s-4.772,1.106-6.4,3.037l-51.834,61.444   c-1.954,2.316-2.462,5.116-1.359,7.49C150.602,74.346,153.069,75.763,156.1,75.763z"
   id="path4"
   style="fill:#00a896;fill-opacity:1" />
</g>
<g
   id="g8">
</g>
<g
   id="g10">
</g>
<g
   id="g12">
</g>
<g
   id="g14">
</g>
<g
   id="g16">
</g>
<g
   id="g18">
</g>
<g
   id="g20">
</g>
<g
   id="g22">
</g>
<g
   id="g24">
</g>
<g
   id="g26">
</g>
<g
   id="g28">
</g>
<g
   id="g30">
</g>
<g
   id="g32">
</g>
<g
   id="g34">
</g>
<g
   id="g36">
</g>
</svg>
