<?xml version="1.0" encoding="iso-8859-1"?>
<!-- Generator: Adobe Illustrator 17.1.0, SVG Export Plug-In . SVG Version: 6.00 Build 0)  -->
<!DOCTYPE svg PUBLIC "-//W3C//DTD SVG 1.1//EN" "http://www.w3.org/Graphics/SVG/1.1/DTD/svg11.dtd">
<svg version="1.1" id="Capa_1" xmlns="http://www.w3.org/2000/svg" xmlns:xlink="http://www.w3.org/1999/xlink" x="0px" y="0px"
	 viewBox="0 0 418.18 418.18" style="enable-background:new 0 0 418.18 418.18;" xml:space="preserve">
<g>
	<path d="M350.369,140.199h-92.162c-8.271,0-15,6.729-15,15v29.712c0,2.757-2.243,5-5,5h-58.234c-2.757,0-5-2.243-5-5v-29.712
		c0-8.271-6.729-15-15-15H67.811c-8.271,0-15,6.729-15,15v247.98c0,8.271,6.729,15,15,15h282.559c8.271,0,15-6.729,15-15v-247.98
		C365.369,146.928,358.641,140.199,350.369,140.199z M232.066,301.954v67.529h-45.958v-67.525h-25.083l48.067-54.201l48.063,54.198
		H232.066z"/>
	<path d="M156.1,75.763h20.74v45.168c0,4.963,4.037,9,9,9h46.492c4.963,0,9-4.037,9-9V75.759h20.748c3.03,0,5.498-1.417,6.601-3.79
		c1.104-2.374,0.596-5.174-1.357-7.491L215.492,3.036c-1.628-1.93-3.961-3.036-6.4-3.036s-4.772,1.106-6.4,3.037l-51.834,61.444
		c-1.954,2.316-2.462,5.116-1.359,7.49C150.602,74.346,153.069,75.763,156.1,75.763z"/>
</g>
<g>
</g>
<g>
</g>
<g>
</g>
<g>
</g>
<g>
</g>
<g>
</g>
<g>
</g>
<g>
</g>
<g>
</g>
<g>
</g>
<g>
</g>
<g>
</g>
<g>
</g>
<g>
</g>
<g>
</g>
</svg>
